<svg id="Capa_1" enable-background="new 0 0 512 512" height="512" viewBox="0 0 512 512" width="512" xmlns="http://www.w3.org/2000/svg" xmlns:xlink="http://www.w3.org/1999/xlink"><linearGradient id="SVGID_1_" gradientUnits="userSpaceOnUse" x1="211.037" x2="211.037" y1="512" y2="0"><stop offset="0" stop-color="#a93aff"/><stop offset="1" stop-color="#ff81ff"/></linearGradient><linearGradient id="SVGID_2_" gradientUnits="userSpaceOnUse" x1="256" x2="256" y1="451.818" y2="0"><stop offset="0" stop-color="#ffbef9"/><stop offset="1" stop-color="#fff1ff"/></linearGradient><g><g><g><path d="m392.037 62v-47c0-8.401-6.599-15-15-15h-272l-30 75-75 30v392c0 8.399 6.599 15 15 15h362c8.401 0 15-6.601 15-15l30-336.089z" fill="url(#SVGID_1_)"/></g></g><g><g><path d="m509.937 69.5c-2.699-4.801-7.5-7.5-12.9-7.5h-105v435l117.9-412.5c2.701-4.801 2.701-10.501 0-15zm-222.9-7.5c-24.814 0-45 20.186-45 45 0 8.291 6.709 15 15 15s15-6.709 15-15c0-8.276 6.738-15 15-15s15 6.724 15 15c0 5.347-2.871 10.327-7.529 13.008-13.857 8.027-22.471 22.954-22.471 38.965v8.027c0 8.291 6.709 15 15 15s15-6.709 15-15v-8.027c0-5.332 2.871-10.327 7.5-13.008 13.887-8.013 22.5-22.954 22.5-38.965 0-24.814-20.185-45-45-45zm15 165c0-8.284-6.716-15-15-15s-15 6.716-15 15 6.716 15 15 15 15-6.716 15-15zm-15 45c-24.814 0-45 20.186-45 45 0 8.291 6.709 15 15 15s15-6.709 15-15c0-8.276 6.738-15 15-15s15 6.724 15 15c0 5.347-2.871 10.327-7.529 13.008-13.857 8.027-22.471 22.954-22.471 38.965v8.027c0 8.291 6.709 15 15 15s15-6.709 15-15v-8.027c0-5.332 2.871-10.327 7.5-13.008 13.887-8.013 22.5-22.954 22.5-38.965 0-24.814-20.185-45-45-45zm0 150c-8.284 0-15 6.716-15 15s6.716 15 15 15 15-6.716 15-15-6.715-15-15-15zm-182-332v-90c-3.9 0-7.8 1.5-10.499 4.499l-90 90c-3.001 2.701-4.501 6.601-4.501 10.501h90c8.285 0 15-6.716 15-15zm92 62h-122c-8.291 0-15 6.709-15 15s6.709 15 15 15h122c8.291 0 15-6.709 15-15s-6.709-15-15-15zm0 60h-122c-8.291 0-15 6.709-15 15s6.709 15 15 15h122c8.291 0 15-6.709 15-15s-6.709-15-15-15zm0 150h-122c-8.291 0-15 6.709-15 15s6.709 15 15 15h122c8.291 0 15-6.709 15-15s-6.709-15-15-15zm0 60h-122c-8.291 0-15 6.709-15 15s6.709 15 15 15h122c8.291 0 15-6.709 15-15s-6.709-15-15-15z" fill="url(#SVGID_2_)"/></g></g></g></svg>