<svg id="Capa_1" enable-background="new 0 0 512 512" height="512" viewBox="0 0 512 512" width="512" xmlns="http://www.w3.org/2000/svg" xmlns:xlink="http://www.w3.org/1999/xlink"><linearGradient id="SVGID_1_" gradientUnits="userSpaceOnUse" x1="286" x2="286" y1="421.006" y2="30.997"><stop offset="0" stop-color="#ffbef9"/><stop offset="1" stop-color="#fff1ff"/></linearGradient><linearGradient id="SVGID_2_" gradientUnits="userSpaceOnUse" x1="225" x2="225" y1="481.003" y2="61.003"><stop offset="0" stop-color="#a93aff"/><stop offset="1" stop-color="#ff81ff"/></linearGradient><g id="High_Speed_2_"><g><g><path d="m255 286.003c-23.086 0-58.154 22.192-76.553 35.098-8.291 5.361-13.447 14.912-13.447 24.902s5.156 19.541 12.979 24.58c18.867 13.228 53.936 35.42 77.021 35.42 33.076 0 60-26.909 60-60s-26.924-60-60-60zm252.605 49.395-60-60c-4.307-4.292-10.752-5.552-16.348-3.252-5.596 2.314-9.258 7.793-9.258 13.857v15h-80.896c-4.688 0-9.111 2.197-11.953 5.947-2.842 3.735-3.75 8.584-2.49 13.11 2.256 7.998 3.34 16.479 3.34 25.942s-1.084 17.944-3.34 25.942c-1.26 4.526-.352 9.375 2.49 13.11 2.842 3.75 7.266 5.947 11.953 5.947h80.897v15c0 6.064 3.662 11.543 9.258 13.857 5.454 2.294 11.988 1.108 16.348-3.252l60-60c5.859-5.857 5.859-15.349-.001-21.208zm-237.605-199.395v-60c0-8.291-6.709-15-15-15h-105v-15c0-6.064-3.662-11.543-9.258-13.857-5.537-2.329-12.07-1.055-16.348 3.252l-60 60c-5.859 5.859-5.859 15.352 0 21.211l60 60c4.364 4.364 10.894 5.546 16.348 3.252 5.596-2.314 9.258-7.793 9.258-13.857v-15h105c8.291-.001 15-6.71 15-15.001z" fill="url(#SVGID_1_)"/></g></g><g><g><path d="m225 211.003c-9.119 0 3.478-2.526-152.999 30.3-5.402 1.199-9.901 5.1-11.4 10.499-1.501 5.099 0 10.8 3.9 14.7l13.2 13.5c-39.901 27.6-70.801 53.399-72.301 54.6-3.3 2.699-5.4 6.899-5.4 11.4 0 4.499 2.1 8.699 5.4 11.4 1.5 1.199 32.401 26.999 72.301 54.6l-13.2 13.499c-3.9 3.9-5.402 9.6-3.9 14.701 1.5 5.4 5.999 9.3 11.4 10.499 141.021 29.068 138.319 30.3 152.999 30.3 75.063 0 135-60.568 135-135 0-73.971-59.782-134.998-135-134.998zm30 180c-19.2 0-54.3-22.8-68.401-32.701-4.199-2.699-6.599-7.5-6.599-12.299 0-4.801 2.401-9.6 6.599-12.301 14.101-9.899 49.2-32.699 68.401-32.699 24.901 0 45 20.1 45 45 0 24.899-20.099 45-45 45zm60-300h60c8.291 0 15-6.709 15-15s-6.709-15-15-15h-60c-8.291 0-15 6.709-15 15s6.709 15 15 15zm120 30h-120c-8.291 0-15 6.709-15 15s6.709 15 15 15h120c8.291 0 15-6.709 15-15s-6.709-15-15-15z" fill="url(#SVGID_2_)"/></g></g></g></svg>